<svg xmlns="http://www.w3.org/2000/svg" xmlns:xlink="http://www.w3.org/1999/xlink" width="197.991" height="218.568" viewBox="0 0 197.991 218.568">
  <defs>
    <filter id="Polygon_29" x="0" y="73.568" width="73" height="78" filterUnits="userSpaceOnUse">
      <feOffset dy="3" input="SourceAlpha"/>
      <feGaussianBlur stdDeviation="3" result="blur"/>
      <feFlood flood-color="#d9232d" flood-opacity="0.149"/>
      <feComposite operator="in" in2="blur"/>
      <feComposite in="SourceGraphic"/>
    </filter>
  </defs>
  <g id="Group_87453" data-name="Group 87453" transform="translate(25 96.568)">
    <g transform="matrix(1, 0, 0, 1, -25, -96.57)" filter="url(#Polygon_29)">
      <g id="Polygon_29-2" data-name="Polygon 29" transform="translate(64 79.57) rotate(90)" fill="#fff">
        <path d="M 44.70317840576172 54.5 L 15.29682064056396 54.5 L 0.5695481896400452 27.5 L 15.29682064056396 0.5 L 44.70317840576172 0.5 L 59.43045043945312 27.5 L 44.70317840576172 54.5 Z" stroke="none"/>
        <path d="M 15.59363555908203 1 L 1.139091491699219 27.5 L 15.59363555908203 54 L 44.40636444091797 54 L 58.86090850830078 27.5 L 44.40636444091797 1 L 15.59363555908203 1 M 15 0 L 45 0 L 60 27.5 L 45 55 L 15 55 L 0 27.5 L 15 0 Z" stroke="none" fill="#ffd6d8"/>
      </g>
    </g>
    <line id="Line_1062" data-name="Line 1062" x2="127.043" transform="translate(45.5 13.813)" fill="none" stroke="#333" stroke-width="2" stroke-dasharray="3" opacity="0.5"/>
    <path id="Path_256168" data-name="Path 256168" d="M11.5-23,55.246-95.568H172.991" fill="none" stroke="#707070" stroke-width="2" stroke-dasharray="3" opacity="0.5"/>
    <path id="Path_256169" data-name="Path 256169" d="M11.5-78.568,55.246-9H172.991" transform="translate(0 130)" fill="none" stroke="#707070" stroke-width="2" stroke-dasharray="3" opacity="0.5"/>
    <path id="Path_251143" data-name="Path 251143" d="M74.361,39.194H69.727c.206-2.883.309-5.767.309-8.547,0-2.059-.309-3.4-.824-4.016a3.133,3.133,0,0,0-2.574-.927,5.225,5.225,0,0,0-2.986,1.03c0,1.442-.1,2.78-.1,3.913,0,1.957,0,4.84.1,8.65H59.018c.206-3.192.412-6.281.412-9.268a6.4,6.4,0,0,0-.618-3.3,3.111,3.111,0,0,0-2.677-1.03,4.191,4.191,0,0,0-3.089,1.236c.1,4.531.1,8.65.1,12.254H48.515c.206-3.6.309-6.487.309-8.547A38.776,38.776,0,0,0,48,22.821l4.428-.515.309,1.854h.206A7.548,7.548,0,0,1,57.988,22.1c2.368,0,4.016.721,4.943,2.059h.309A8.419,8.419,0,0,1,68.286,22.1a6.685,6.685,0,0,1,4.428,1.236q1.545,1.236,1.545,4.634v2.471C74.258,32.5,74.258,35.384,74.361,39.194Z" transform="translate(-50.008 -17.826)" fill="#d9232d"/>
  </g>
</svg>
