<svg id="pdf" xmlns="http://www.w3.org/2000/svg" width="31.378" height="35.86" viewBox="0 0 31.378 35.86">
  <path id="Path_780" data-name="Path 780" d="M20.955,29.136a8.29,8.29,0,0,1,10.553-8V10.054L21.414,0H2.371A2.241,2.241,0,0,0,.13,2.241V33.619A2.241,2.241,0,0,0,2.371,35.86H24.394A8.29,8.29,0,0,1,20.955,29.136Z" transform="translate(-0.13)" fill="#fff"/>
  <path id="Path_781" data-name="Path 781" d="M193.812,10.256H186a2.242,2.242,0,0,1-2.241-2.241V.193Z" transform="translate(-162.467 -0.171)" fill="#d9d9d9"/>
  <path id="Path_784" data-name="Path 784" d="M82.994,136.71a.651.651,0,0,0,0-1.29H80.856a.668.668,0,0,0-.651.728V141.4c0,.468.267.728.628.728s.626-.26.626-.728v-1.442h1.293a.607.607,0,0,0,.6-.654.6.6,0,0,0-.6-.637H81.459v-1.96Zm-7.227-1.29H74.2a.692.692,0,0,0-.726.724v5.264a.689.689,0,0,0,.744.7h1.642a3.045,3.045,0,0,0,3.226-3.252A3.124,3.124,0,0,0,75.767,135.42Zm.075,5.395h-.954v-4.1h.86c1.3,0,1.867.873,1.867,2.078C77.615,139.923,77.059,140.815,75.842,140.815Zm-5.731-5.395h-1.55a.652.652,0,0,0-.682.728V141.4a.66.66,0,1,0,1.313,0v-1.534h.972a2.122,2.122,0,0,0,2.189-2.215A2.146,2.146,0,0,0,70.111,135.42Zm-.026,3.216h-.893v-1.982h.893a1,1,0,0,1,0,1.982Z" transform="translate(-60.023 -119.718)" fill="#d9232d"/>
  <path id="Path_256155" data-name="Path 256155" d="M31.378,19.749V33.108A2.692,2.692,0,0,1,28.5,35.859c-2.895-.079-4.63,0-4.63,0H16.512l3.682-9.582,6.4-6.528Z" fill="#fff"/>
</svg>
