<svg xmlns="http://www.w3.org/2000/svg" xmlns:xlink="http://www.w3.org/1999/xlink" width="1920" height="179.506" viewBox="0 0 1920 179.506">
  <defs>
    <clipPath id="clip-path">
      <rect width="1920" height="139.506" fill="none"/>
    </clipPath>
    <linearGradient id="linear-gradient" x1="0.5" x2="0.5" y2="1" gradientUnits="objectBoundingBox">
      <stop offset="0" stop-color="#fff" stop-opacity="0"/>
      <stop offset="1" stop-color="#fff"/>
    </linearGradient>
  </defs>
  <g id="Group_87528" data-name="Group 87528" transform="translate(0 -2481)">
    <g id="Repeat_Grid_101" data-name="Repeat Grid 101" transform="translate(0 2481)" opacity="0.33" clip-path="url(#clip-path)">
      <g transform="translate(-883.419 -8694.463)">
        <g id="Group_87476" data-name="Group 87476" transform="translate(1339.708 8694.463) rotate(90)">
          <path id="Path_256179" data-name="Path 256179" d="M.394.394H371.11V455.9H.394ZM0,456.289H371.506V0H0Z" fill="#333"/>
          <rect id="Rectangle_44075" data-name="Rectangle 44075" width="371.112" height="0.394" transform="translate(0.199 427.403)" fill="#333"/>
          <rect id="Rectangle_44076" data-name="Rectangle 44076" width="371.112" height="0.394" transform="translate(0.199 398.907)" fill="#333"/>
          <rect id="Rectangle_44077" data-name="Rectangle 44077" width="371.112" height="0.394" transform="translate(0.199 370.414)" fill="#333"/>
          <rect id="Rectangle_44078" data-name="Rectangle 44078" width="371.112" height="0.394" transform="translate(0.199 341.922)" fill="#333"/>
          <rect id="Rectangle_44079" data-name="Rectangle 44079" width="371.112" height="0.394" transform="translate(0.199 313.429)" fill="#333"/>
          <rect id="Rectangle_44080" data-name="Rectangle 44080" width="371.112" height="0.394" transform="translate(0.199 284.936)" fill="#333"/>
          <rect id="Rectangle_44081" data-name="Rectangle 44081" width="371.112" height="0.394" transform="translate(0.199 256.443)" fill="#333"/>
          <rect id="Rectangle_44082" data-name="Rectangle 44082" width="371.112" height="0.396" transform="translate(0.199 227.945)" fill="#333"/>
          <rect id="Rectangle_44083" data-name="Rectangle 44083" width="371.112" height="0.396" transform="translate(0.199 199.452)" fill="#333"/>
          <rect id="Rectangle_44084" data-name="Rectangle 44084" width="371.112" height="0.394" transform="translate(0.199 170.962)" fill="#333"/>
          <rect id="Rectangle_44085" data-name="Rectangle 44085" width="371.112" height="0.394" transform="translate(0.199 142.469)" fill="#333"/>
          <rect id="Rectangle_44086" data-name="Rectangle 44086" width="371.112" height="0.394" transform="translate(0.199 113.974)" fill="#333"/>
          <rect id="Rectangle_44087" data-name="Rectangle 44087" width="371.112" height="0.394" transform="translate(0.199 85.481)" fill="#333"/>
          <rect id="Rectangle_44088" data-name="Rectangle 44088" width="371.112" height="0.394" transform="translate(0.199 56.988)" fill="#333"/>
          <rect id="Rectangle_44089" data-name="Rectangle 44089" width="371.112" height="0.394" transform="translate(0.199 28.493)" fill="#333"/>
          <rect id="Rectangle_44090" data-name="Rectangle 44090" width="0.394" height="455.893" transform="translate(342.564 0.197)" fill="#333"/>
          <rect id="Rectangle_44091" data-name="Rectangle 44091" width="0.394" height="455.893" transform="translate(314.017 0.197)" fill="#333"/>
          <rect id="Rectangle_44092" data-name="Rectangle 44092" width="0.394" height="455.893" transform="translate(285.471 0.197)" fill="#333"/>
          <rect id="Rectangle_44093" data-name="Rectangle 44093" width="0.394" height="455.893" transform="translate(256.923 0.197)" fill="#333"/>
          <rect id="Rectangle_44094" data-name="Rectangle 44094" width="0.394" height="455.893" transform="translate(228.375 0.197)" fill="#333"/>
          <rect id="Rectangle_44095" data-name="Rectangle 44095" width="0.394" height="455.893" transform="translate(199.83 0.197)" fill="#333"/>
          <rect id="Rectangle_44096" data-name="Rectangle 44096" width="0.394" height="455.893" transform="translate(171.282 0.197)" fill="#333"/>
          <rect id="Rectangle_44097" data-name="Rectangle 44097" width="0.394" height="455.893" transform="translate(142.734 0.197)" fill="#333"/>
          <rect id="Rectangle_44098" data-name="Rectangle 44098" width="0.394" height="455.893" transform="translate(114.189 0.197)" fill="#333"/>
          <rect id="Rectangle_44099" data-name="Rectangle 44099" width="0.394" height="455.893" transform="translate(85.641 0.197)" fill="#333"/>
          <rect id="Rectangle_44100" data-name="Rectangle 44100" width="0.394" height="455.893" transform="translate(57.093 0.197)" fill="#333"/>
          <rect id="Rectangle_44101" data-name="Rectangle 44101" width="0.394" height="455.893" transform="translate(28.548 0.197)" fill="#333"/>
          <rect id="Rectangle_44102" data-name="Rectangle 44102" width="29" height="29" transform="translate(142.537 398.708)" fill="#f3722c" opacity="0.4"/>
        </g>
      </g>
      <g transform="translate(-427.419 -8694.463)">
        <g id="Group_87476-2" data-name="Group 87476" transform="translate(1339.708 8694.463) rotate(90)">
          <path id="Path_256179-2" data-name="Path 256179" d="M.394.394H371.11V455.9H.394ZM0,456.289H371.506V0H0Z" fill="#333"/>
          <rect id="Rectangle_44075-2" data-name="Rectangle 44075" width="371.112" height="0.394" transform="translate(0.199 427.403)" fill="#333"/>
          <rect id="Rectangle_44076-2" data-name="Rectangle 44076" width="371.112" height="0.394" transform="translate(0.199 398.907)" fill="#333"/>
          <rect id="Rectangle_44077-2" data-name="Rectangle 44077" width="371.112" height="0.394" transform="translate(0.199 370.414)" fill="#333"/>
          <rect id="Rectangle_44078-2" data-name="Rectangle 44078" width="371.112" height="0.394" transform="translate(0.199 341.922)" fill="#333"/>
          <rect id="Rectangle_44079-2" data-name="Rectangle 44079" width="371.112" height="0.394" transform="translate(0.199 313.429)" fill="#333"/>
          <rect id="Rectangle_44080-2" data-name="Rectangle 44080" width="371.112" height="0.394" transform="translate(0.199 284.936)" fill="#333"/>
          <rect id="Rectangle_44081-2" data-name="Rectangle 44081" width="371.112" height="0.394" transform="translate(0.199 256.443)" fill="#333"/>
          <rect id="Rectangle_44082-2" data-name="Rectangle 44082" width="371.112" height="0.396" transform="translate(0.199 227.945)" fill="#333"/>
          <rect id="Rectangle_44083-2" data-name="Rectangle 44083" width="371.112" height="0.396" transform="translate(0.199 199.452)" fill="#333"/>
          <rect id="Rectangle_44084-2" data-name="Rectangle 44084" width="371.112" height="0.394" transform="translate(0.199 170.962)" fill="#333"/>
          <rect id="Rectangle_44085-2" data-name="Rectangle 44085" width="371.112" height="0.394" transform="translate(0.199 142.469)" fill="#333"/>
          <rect id="Rectangle_44086-2" data-name="Rectangle 44086" width="371.112" height="0.394" transform="translate(0.199 113.974)" fill="#333"/>
          <rect id="Rectangle_44087-2" data-name="Rectangle 44087" width="371.112" height="0.394" transform="translate(0.199 85.481)" fill="#333"/>
          <rect id="Rectangle_44088-2" data-name="Rectangle 44088" width="371.112" height="0.394" transform="translate(0.199 56.988)" fill="#333"/>
          <rect id="Rectangle_44089-2" data-name="Rectangle 44089" width="371.112" height="0.394" transform="translate(0.199 28.493)" fill="#333"/>
          <rect id="Rectangle_44090-2" data-name="Rectangle 44090" width="0.394" height="455.893" transform="translate(342.564 0.197)" fill="#333"/>
          <rect id="Rectangle_44091-2" data-name="Rectangle 44091" width="0.394" height="455.893" transform="translate(314.017 0.197)" fill="#333"/>
          <rect id="Rectangle_44092-2" data-name="Rectangle 44092" width="0.394" height="455.893" transform="translate(285.471 0.197)" fill="#333"/>
          <rect id="Rectangle_44093-2" data-name="Rectangle 44093" width="0.394" height="455.893" transform="translate(256.923 0.197)" fill="#333"/>
          <rect id="Rectangle_44094-2" data-name="Rectangle 44094" width="0.394" height="455.893" transform="translate(228.375 0.197)" fill="#333"/>
          <rect id="Rectangle_44095-2" data-name="Rectangle 44095" width="0.394" height="455.893" transform="translate(199.83 0.197)" fill="#333"/>
          <rect id="Rectangle_44096-2" data-name="Rectangle 44096" width="0.394" height="455.893" transform="translate(171.282 0.197)" fill="#333"/>
          <rect id="Rectangle_44097-2" data-name="Rectangle 44097" width="0.394" height="455.893" transform="translate(142.734 0.197)" fill="#333"/>
          <rect id="Rectangle_44098-2" data-name="Rectangle 44098" width="0.394" height="455.893" transform="translate(114.189 0.197)" fill="#333"/>
          <rect id="Rectangle_44099-2" data-name="Rectangle 44099" width="0.394" height="455.893" transform="translate(85.641 0.197)" fill="#333"/>
          <rect id="Rectangle_44100-2" data-name="Rectangle 44100" width="0.394" height="455.893" transform="translate(57.093 0.197)" fill="#333"/>
          <rect id="Rectangle_44101-2" data-name="Rectangle 44101" width="0.394" height="455.893" transform="translate(28.548 0.197)" fill="#333"/>
          <rect id="Rectangle_44102-2" data-name="Rectangle 44102" width="29" height="29" transform="translate(142.537 398.708)" fill="#f3722c" opacity="0.4"/>
        </g>
      </g>
      <g transform="translate(28.581 -8694.463)">
        <g id="Group_87476-3" data-name="Group 87476" transform="translate(1339.708 8694.463) rotate(90)">
          <path id="Path_256179-3" data-name="Path 256179" d="M.394.394H371.11V455.9H.394ZM0,456.289H371.506V0H0Z" fill="#333"/>
          <rect id="Rectangle_44075-3" data-name="Rectangle 44075" width="371.112" height="0.394" transform="translate(0.199 427.403)" fill="#333"/>
          <rect id="Rectangle_44076-3" data-name="Rectangle 44076" width="371.112" height="0.394" transform="translate(0.199 398.907)" fill="#333"/>
          <rect id="Rectangle_44077-3" data-name="Rectangle 44077" width="371.112" height="0.394" transform="translate(0.199 370.414)" fill="#333"/>
          <rect id="Rectangle_44078-3" data-name="Rectangle 44078" width="371.112" height="0.394" transform="translate(0.199 341.922)" fill="#333"/>
          <rect id="Rectangle_44079-3" data-name="Rectangle 44079" width="371.112" height="0.394" transform="translate(0.199 313.429)" fill="#333"/>
          <rect id="Rectangle_44080-3" data-name="Rectangle 44080" width="371.112" height="0.394" transform="translate(0.199 284.936)" fill="#333"/>
          <rect id="Rectangle_44081-3" data-name="Rectangle 44081" width="371.112" height="0.394" transform="translate(0.199 256.443)" fill="#333"/>
          <rect id="Rectangle_44082-3" data-name="Rectangle 44082" width="371.112" height="0.396" transform="translate(0.199 227.945)" fill="#333"/>
          <rect id="Rectangle_44083-3" data-name="Rectangle 44083" width="371.112" height="0.396" transform="translate(0.199 199.452)" fill="#333"/>
          <rect id="Rectangle_44084-3" data-name="Rectangle 44084" width="371.112" height="0.394" transform="translate(0.199 170.962)" fill="#333"/>
          <rect id="Rectangle_44085-3" data-name="Rectangle 44085" width="371.112" height="0.394" transform="translate(0.199 142.469)" fill="#333"/>
          <rect id="Rectangle_44086-3" data-name="Rectangle 44086" width="371.112" height="0.394" transform="translate(0.199 113.974)" fill="#333"/>
          <rect id="Rectangle_44087-3" data-name="Rectangle 44087" width="371.112" height="0.394" transform="translate(0.199 85.481)" fill="#333"/>
          <rect id="Rectangle_44088-3" data-name="Rectangle 44088" width="371.112" height="0.394" transform="translate(0.199 56.988)" fill="#333"/>
          <rect id="Rectangle_44089-3" data-name="Rectangle 44089" width="371.112" height="0.394" transform="translate(0.199 28.493)" fill="#333"/>
          <rect id="Rectangle_44090-3" data-name="Rectangle 44090" width="0.394" height="455.893" transform="translate(342.564 0.197)" fill="#333"/>
          <rect id="Rectangle_44091-3" data-name="Rectangle 44091" width="0.394" height="455.893" transform="translate(314.017 0.197)" fill="#333"/>
          <rect id="Rectangle_44092-3" data-name="Rectangle 44092" width="0.394" height="455.893" transform="translate(285.471 0.197)" fill="#333"/>
          <rect id="Rectangle_44093-3" data-name="Rectangle 44093" width="0.394" height="455.893" transform="translate(256.923 0.197)" fill="#333"/>
          <rect id="Rectangle_44094-3" data-name="Rectangle 44094" width="0.394" height="455.893" transform="translate(228.375 0.197)" fill="#333"/>
          <rect id="Rectangle_44095-3" data-name="Rectangle 44095" width="0.394" height="455.893" transform="translate(199.83 0.197)" fill="#333"/>
          <rect id="Rectangle_44096-3" data-name="Rectangle 44096" width="0.394" height="455.893" transform="translate(171.282 0.197)" fill="#333"/>
          <rect id="Rectangle_44097-3" data-name="Rectangle 44097" width="0.394" height="455.893" transform="translate(142.734 0.197)" fill="#333"/>
          <rect id="Rectangle_44098-3" data-name="Rectangle 44098" width="0.394" height="455.893" transform="translate(114.189 0.197)" fill="#333"/>
          <rect id="Rectangle_44099-3" data-name="Rectangle 44099" width="0.394" height="455.893" transform="translate(85.641 0.197)" fill="#333"/>
          <rect id="Rectangle_44100-3" data-name="Rectangle 44100" width="0.394" height="455.893" transform="translate(57.093 0.197)" fill="#333"/>
          <rect id="Rectangle_44101-3" data-name="Rectangle 44101" width="0.394" height="455.893" transform="translate(28.548 0.197)" fill="#333"/>
          <rect id="Rectangle_44102-3" data-name="Rectangle 44102" width="29" height="29" transform="translate(142.537 398.708)" fill="#f3722c" opacity="0.4"/>
        </g>
      </g>
      <g transform="translate(484.581 -8694.463)">
        <g id="Group_87476-4" data-name="Group 87476" transform="translate(1339.708 8694.463) rotate(90)">
          <path id="Path_256179-4" data-name="Path 256179" d="M.394.394H371.11V455.9H.394ZM0,456.289H371.506V0H0Z" fill="#333"/>
          <rect id="Rectangle_44075-4" data-name="Rectangle 44075" width="371.112" height="0.394" transform="translate(0.199 427.403)" fill="#333"/>
          <rect id="Rectangle_44076-4" data-name="Rectangle 44076" width="371.112" height="0.394" transform="translate(0.199 398.907)" fill="#333"/>
          <rect id="Rectangle_44077-4" data-name="Rectangle 44077" width="371.112" height="0.394" transform="translate(0.199 370.414)" fill="#333"/>
          <rect id="Rectangle_44078-4" data-name="Rectangle 44078" width="371.112" height="0.394" transform="translate(0.199 341.922)" fill="#333"/>
          <rect id="Rectangle_44079-4" data-name="Rectangle 44079" width="371.112" height="0.394" transform="translate(0.199 313.429)" fill="#333"/>
          <rect id="Rectangle_44080-4" data-name="Rectangle 44080" width="371.112" height="0.394" transform="translate(0.199 284.936)" fill="#333"/>
          <rect id="Rectangle_44081-4" data-name="Rectangle 44081" width="371.112" height="0.394" transform="translate(0.199 256.443)" fill="#333"/>
          <rect id="Rectangle_44082-4" data-name="Rectangle 44082" width="371.112" height="0.396" transform="translate(0.199 227.945)" fill="#333"/>
          <rect id="Rectangle_44083-4" data-name="Rectangle 44083" width="371.112" height="0.396" transform="translate(0.199 199.452)" fill="#333"/>
          <rect id="Rectangle_44084-4" data-name="Rectangle 44084" width="371.112" height="0.394" transform="translate(0.199 170.962)" fill="#333"/>
          <rect id="Rectangle_44085-4" data-name="Rectangle 44085" width="371.112" height="0.394" transform="translate(0.199 142.469)" fill="#333"/>
          <rect id="Rectangle_44086-4" data-name="Rectangle 44086" width="371.112" height="0.394" transform="translate(0.199 113.974)" fill="#333"/>
          <rect id="Rectangle_44087-4" data-name="Rectangle 44087" width="371.112" height="0.394" transform="translate(0.199 85.481)" fill="#333"/>
          <rect id="Rectangle_44088-4" data-name="Rectangle 44088" width="371.112" height="0.394" transform="translate(0.199 56.988)" fill="#333"/>
          <rect id="Rectangle_44089-4" data-name="Rectangle 44089" width="371.112" height="0.394" transform="translate(0.199 28.493)" fill="#333"/>
          <rect id="Rectangle_44090-4" data-name="Rectangle 44090" width="0.394" height="455.893" transform="translate(342.564 0.197)" fill="#333"/>
          <rect id="Rectangle_44091-4" data-name="Rectangle 44091" width="0.394" height="455.893" transform="translate(314.017 0.197)" fill="#333"/>
          <rect id="Rectangle_44092-4" data-name="Rectangle 44092" width="0.394" height="455.893" transform="translate(285.471 0.197)" fill="#333"/>
          <rect id="Rectangle_44093-4" data-name="Rectangle 44093" width="0.394" height="455.893" transform="translate(256.923 0.197)" fill="#333"/>
          <rect id="Rectangle_44094-4" data-name="Rectangle 44094" width="0.394" height="455.893" transform="translate(228.375 0.197)" fill="#333"/>
          <rect id="Rectangle_44095-4" data-name="Rectangle 44095" width="0.394" height="455.893" transform="translate(199.83 0.197)" fill="#333"/>
          <rect id="Rectangle_44096-4" data-name="Rectangle 44096" width="0.394" height="455.893" transform="translate(171.282 0.197)" fill="#333"/>
          <rect id="Rectangle_44097-4" data-name="Rectangle 44097" width="0.394" height="455.893" transform="translate(142.734 0.197)" fill="#333"/>
          <rect id="Rectangle_44098-4" data-name="Rectangle 44098" width="0.394" height="455.893" transform="translate(114.189 0.197)" fill="#333"/>
          <rect id="Rectangle_44099-4" data-name="Rectangle 44099" width="0.394" height="455.893" transform="translate(85.641 0.197)" fill="#333"/>
          <rect id="Rectangle_44100-4" data-name="Rectangle 44100" width="0.394" height="455.893" transform="translate(57.093 0.197)" fill="#333"/>
          <rect id="Rectangle_44101-4" data-name="Rectangle 44101" width="0.394" height="455.893" transform="translate(28.548 0.197)" fill="#333"/>
          <rect id="Rectangle_44102-4" data-name="Rectangle 44102" width="29" height="29" transform="translate(142.537 398.708)" fill="#f3722c" opacity="0.4"/>
        </g>
      </g>
      <g transform="translate(940.581 -8694.463)">
        <g id="Group_87476-5" data-name="Group 87476" transform="translate(1339.708 8694.463) rotate(90)">
          <path id="Path_256179-5" data-name="Path 256179" d="M.394.394H371.11V455.9H.394ZM0,456.289H371.506V0H0Z" fill="#333"/>
          <rect id="Rectangle_44075-5" data-name="Rectangle 44075" width="371.112" height="0.394" transform="translate(0.199 427.403)" fill="#333"/>
          <rect id="Rectangle_44076-5" data-name="Rectangle 44076" width="371.112" height="0.394" transform="translate(0.199 398.907)" fill="#333"/>
          <rect id="Rectangle_44077-5" data-name="Rectangle 44077" width="371.112" height="0.394" transform="translate(0.199 370.414)" fill="#333"/>
          <rect id="Rectangle_44078-5" data-name="Rectangle 44078" width="371.112" height="0.394" transform="translate(0.199 341.922)" fill="#333"/>
          <rect id="Rectangle_44079-5" data-name="Rectangle 44079" width="371.112" height="0.394" transform="translate(0.199 313.429)" fill="#333"/>
          <rect id="Rectangle_44080-5" data-name="Rectangle 44080" width="371.112" height="0.394" transform="translate(0.199 284.936)" fill="#333"/>
          <rect id="Rectangle_44081-5" data-name="Rectangle 44081" width="371.112" height="0.394" transform="translate(0.199 256.443)" fill="#333"/>
          <rect id="Rectangle_44082-5" data-name="Rectangle 44082" width="371.112" height="0.396" transform="translate(0.199 227.945)" fill="#333"/>
          <rect id="Rectangle_44083-5" data-name="Rectangle 44083" width="371.112" height="0.396" transform="translate(0.199 199.452)" fill="#333"/>
          <rect id="Rectangle_44084-5" data-name="Rectangle 44084" width="371.112" height="0.394" transform="translate(0.199 170.962)" fill="#333"/>
          <rect id="Rectangle_44085-5" data-name="Rectangle 44085" width="371.112" height="0.394" transform="translate(0.199 142.469)" fill="#333"/>
          <rect id="Rectangle_44086-5" data-name="Rectangle 44086" width="371.112" height="0.394" transform="translate(0.199 113.974)" fill="#333"/>
          <rect id="Rectangle_44087-5" data-name="Rectangle 44087" width="371.112" height="0.394" transform="translate(0.199 85.481)" fill="#333"/>
          <rect id="Rectangle_44088-5" data-name="Rectangle 44088" width="371.112" height="0.394" transform="translate(0.199 56.988)" fill="#333"/>
          <rect id="Rectangle_44089-5" data-name="Rectangle 44089" width="371.112" height="0.394" transform="translate(0.199 28.493)" fill="#333"/>
          <rect id="Rectangle_44090-5" data-name="Rectangle 44090" width="0.394" height="455.893" transform="translate(342.564 0.197)" fill="#333"/>
          <rect id="Rectangle_44091-5" data-name="Rectangle 44091" width="0.394" height="455.893" transform="translate(314.017 0.197)" fill="#333"/>
          <rect id="Rectangle_44092-5" data-name="Rectangle 44092" width="0.394" height="455.893" transform="translate(285.471 0.197)" fill="#333"/>
          <rect id="Rectangle_44093-5" data-name="Rectangle 44093" width="0.394" height="455.893" transform="translate(256.923 0.197)" fill="#333"/>
          <rect id="Rectangle_44094-5" data-name="Rectangle 44094" width="0.394" height="455.893" transform="translate(228.375 0.197)" fill="#333"/>
          <rect id="Rectangle_44095-5" data-name="Rectangle 44095" width="0.394" height="455.893" transform="translate(199.83 0.197)" fill="#333"/>
          <rect id="Rectangle_44096-5" data-name="Rectangle 44096" width="0.394" height="455.893" transform="translate(171.282 0.197)" fill="#333"/>
          <rect id="Rectangle_44097-5" data-name="Rectangle 44097" width="0.394" height="455.893" transform="translate(142.734 0.197)" fill="#333"/>
          <rect id="Rectangle_44098-5" data-name="Rectangle 44098" width="0.394" height="455.893" transform="translate(114.189 0.197)" fill="#333"/>
          <rect id="Rectangle_44099-5" data-name="Rectangle 44099" width="0.394" height="455.893" transform="translate(85.641 0.197)" fill="#333"/>
          <rect id="Rectangle_44100-5" data-name="Rectangle 44100" width="0.394" height="455.893" transform="translate(57.093 0.197)" fill="#333"/>
          <rect id="Rectangle_44101-5" data-name="Rectangle 44101" width="0.394" height="455.893" transform="translate(28.548 0.197)" fill="#333"/>
          <rect id="Rectangle_44102-5" data-name="Rectangle 44102" width="29" height="29" transform="translate(142.537 398.708)" fill="#f3722c" opacity="0.4"/>
        </g>
      </g>
    </g>
    <rect id="Rectangle_44114" data-name="Rectangle 44114" width="1919" height="139.506" transform="translate(0 2521)" fill="url(#linear-gradient)"/>
  </g>
</svg>
