<svg xmlns="http://www.w3.org/2000/svg" xmlns:xlink="http://www.w3.org/1999/xlink" width="916.362" height="318.198" viewBox="0 0 916.362 318.198">
  <defs>
    <radialGradient id="radial-gradient" cx="0.5" cy="0.5" r="0.399" gradientUnits="objectBoundingBox">
      <stop offset="0" stop-color="#fff" stop-opacity="0"/>
      <stop offset="1" stop-color="#fff"/>
    </radialGradient>
  </defs>
  <g id="Group_87458" data-name="Group 87458" transform="translate(-461.357 -3076.802)">
    <g id="Group_87457" data-name="Group 87457" transform="translate(-243 14.358)">
      <path id="Path_256173" data-name="Path 256173" d="M222.779,312.8.363,182.051,314.645.071,535.363,129.827Zm292.7-171.614-16.733-9.838-19.138,11.194,16.741,9.842ZM257.841,172.1l19.307-11.246-16.791-9.87-19.315,11.24Zm-17.07-9.717-19.333,11.251,16.806,9.88,19.326-11.256Zm36.648-1.686,19.289-11.235-16.783-9.866-19.3,11.23ZM296.977,149.3l19.269-11.224-16.774-9.861-19.278,11.219Zm.235.138,16.781,9.866,19.262-11.227-16.774-9.861Zm-.27.158-19.288,11.233,16.789,9.871,19.28-11.24Zm-19.559,11.392-19.306,11.245,16.8,9.875,19.3-11.249Zm-19.577,11.4L238.48,183.65l16.806,9.88L274.6,182.27Zm-19.6,11.414-19.343,11.265,16.813,9.885,19.335-11.27Zm-.236-.139-16.806-9.88-19.35,11.26,16.813,9.886Zm-17.041-10.018-16.807-9.88-19.359,11.256,16.815,9.886Zm.271-.158,19.333-11.251-16.8-9.875L204.4,163.614Zm19.6-11.408,19.315-11.241-16.79-9.871-19.323,11.236Zm19.586-11.4,19.3-11.23-16.783-9.866-19.3,11.225ZM279.96,139.3l19.277-11.219-16.774-9.861-19.285,11.214Zm19.548-11.376,19.259-11.208L302,106.859l-19.267,11.2Zm.235.138,16.774,9.861,19.252-11.213L319,116.854Zm17.009,10,16.774,9.86L352.769,136.7,336,126.849Zm17.009,10,16.774,9.861L369.77,146.7,353,136.843Zm-.27.157-19.261,11.227,16.781,9.866,19.253-11.232ZM313.959,159.6l-19.28,11.238,16.79,9.871L330.74,169.47ZM294.407,171l-19.3,11.249,16.8,9.875L311.2,180.87Zm-19.569,11.408-19.317,11.26,16.806,9.88,19.308-11.265ZM255.25,193.826,235.914,205.1l16.815,9.885,19.327-11.275Zm-19.607,11.43-19.354,11.281,16.822,9.889,19.347-11.286Zm-.236-.139-16.813-9.885-19.362,11.278,16.822,9.889Zm-17.049-10.023-16.815-9.885-19.37,11.273L199,206.372Zm-17.049-10.023-16.815-9.885-19.378,11.268,16.822,9.889Zm-17.05-10.023-16.813-9.883-19.387,11.263,16.822,9.888Zm.272-.157,19.359-11.257-16.8-9.88-19.367,11.252Zm19.632-11.415,19.34-11.246-16.8-9.875L187.355,153.6Zm19.612-11.4L243.1,140.836l-16.79-9.871L206.976,142.2Zm19.595-11.393,19.3-11.224-16.781-9.866-19.312,11.22ZM262.943,129.3l19.285-11.213-16.774-9.861L246.161,119.43ZM282.5,117.924l19.268-11.2L285,96.865l-19.275,11.2Zm19.538-11.36,19.249-11.193L304.528,85.52,285.271,96.708Zm.235.138,16.767,9.858,19.241-11.2L321.521,95.51Zm17,10,16.767,9.856,19.232-11.2L338.513,105.5Zm17,10,16.765,9.855,19.225-11.206-16.758-9.851Zm17,9.994,16.767,9.856,19.216-11.211L372.5,125.478Zm17,9.994,16.765,9.856,19.21-11.216-16.759-9.851Zm-.27.157L350.77,158.059l16.774,9.861,19.227-11.226ZM350.5,158.218,331.247,169.45l16.783,9.866,19.245-11.237Zm-19.523,11.389L311.7,180.851l16.791,9.871,19.264-11.248Zm-19.543,11.4-19.29,11.254,16.8,9.876,19.283-11.259Zm-19.562,11.413-19.308,11.265,16.806,9.88,19.3-11.27Zm-19.58,11.424-19.327,11.275,16.815,9.885,19.318-11.28Zm-19.6,11.434-19.347,11.286,16.823,9.889,19.338-11.291Zm-19.618,11.445-19.365,11.3,16.831,9.894,19.356-11.3Zm-.236-.139L216.018,216.7,196.644,227.99l16.831,9.894Zm-17.058-10.028-16.822-9.888-19.381,11.288,16.829,9.894ZM198.724,206.53,181.9,196.641l-19.39,11.284,16.831,9.893ZM181.666,196.5l-16.823-9.889-19.4,11.279,16.831,9.894Zm-17.059-10.028-16.821-9.889-19.405,11.274,16.829,9.894ZM147.55,176.447l-16.823-9.889-19.413,11.269,16.831,9.894Zm.271-.158,19.387-11.263-16.815-9.885L131,166.4Zm19.659-11.421,19.367-11.252-16.806-9.88-19.375,11.247Zm19.639-11.409,19.349-11.242-16.8-9.875-19.358,11.236Zm19.62-11.4,19.332-11.231-16.79-9.871-19.339,11.226Zm19.6-11.388,19.312-11.22-16.783-9.866L209.553,120.8Zm19.582-11.378,19.294-11.209-16.774-9.861-19.3,11.205Zm19.564-11.366,19.275-11.2L268,86.871,248.715,98.064ZM285.036,96.57l19.257-11.188-16.758-9.851L268.27,86.714Zm19.527-11.345L323.8,74.048,307.051,64.2,287.805,75.374Zm.235.138,16.758,9.851,19.23-11.182-16.749-9.846Zm16.993,9.99,16.758,9.851,19.222-11.187-16.751-9.846Zm16.993,9.989,16.758,9.853L374.757,104l-16.751-9.848Zm16.993,9.99,16.758,9.851,19.206-11.2-16.749-9.846Zm16.993,9.989,16.758,9.853,19.2-11.2-16.749-9.846Zm16.993,9.99,16.758,9.851,19.191-11.205-16.751-9.846Zm16.993,9.99,16.758,9.851,19.182-11.21-16.749-9.848Zm-.269.157-19.209,11.216,16.765,9.856,19.2-11.221Zm-19.479,11.374L367.779,168.06l16.774,9.86,19.219-11.231Zm-19.5,11.385-19.245,11.237,16.781,9.866,19.237-11.242Zm-19.515,11.4-19.264,11.248,16.79,9.87,19.256-11.253Zm-19.534,11.405-19.283,11.259,16.8,9.875,19.274-11.263ZM308.9,202.436l-19.3,11.27,16.8,9.88L325.7,212.31Zm-19.571,11.429-19.319,11.28,16.815,9.883,19.311-11.284ZM269.744,225.3,250.4,236.594l16.822,9.889,19.331-11.3Zm-19.611,11.45-19.356,11.3,16.831,9.894,19.348-11.307Zm-19.628,11.461-19.375,11.313,16.837,9.9,19.367-11.318Zm-.236-.138-16.831-9.894L194.056,249.49l16.838,9.9ZM213.2,238.043l-16.831-9.894-19.392,11.3,16.839,9.9Zm-17.066-10.033-16.831-9.894-19.4,11.3,16.838,9.9ZM179.07,217.977l-16.831-9.894-19.407,11.294,16.838,9.9ZM162,207.944l-16.831-9.894-19.415,11.289,16.839,9.9Zm-17.066-10.033-16.829-9.894L108.684,199.3l16.838,9.9Zm-17.065-10.032-16.831-9.894L91.61,189.265l16.838,9.9Zm-17.066-10.033-16.831-9.894-19.44,11.275,16.839,9.9Zm.273-.158,19.413-11.269-16.822-9.889L94.248,167.793Zm19.686-11.428L150.159,155l-16.815-9.885-19.4,11.253Zm19.667-11.417L169.806,143.6,153,133.717l-19.383,11.242Zm19.646-11.4L189.435,132.2l-16.8-9.876-19.365,11.232Zm19.629-11.394,19.339-11.226-16.79-9.871-19.347,11.221Zm19.611-11.385,19.321-11.215-16.783-9.866L192.527,110.79Zm19.591-11.372,19.3-11.2-16.774-9.861-19.308,11.2Zm19.573-11.361,19.284-11.194L251,76.876,231.707,88.065Zm19.554-11.351L287.3,75.392l-16.759-9.851L251.268,76.719Zm19.536-11.34,19.246-11.172-16.749-9.846L270.813,65.383Zm19.516-11.329,19.227-11.161L309.572,42.9,290.337,54.059Zm.235.139,16.751,9.846,19.219-11.166-16.742-9.843Zm16.985,9.984,16.749,9.848,19.211-11.171-16.742-9.843Zm16.984,9.985,16.751,9.846,19.2-11.174L360.5,72.843ZM358.276,94l16.749,9.846,19.2-11.181-16.742-9.842Zm16.984,9.984,16.749,9.848L411.2,102.645,394.456,92.8Zm16.984,9.985L409,123.815l19.179-11.189-16.742-9.843Zm16.985,9.985,16.749,9.846,19.172-11.194-16.742-9.843Zm16.985,9.984,16.748,9.848,19.165-11.2-16.742-9.843Zm16.984,9.985,16.749,9.846,19.156-11.2-16.742-9.843Zm-.27.157-19.182,11.21,16.758,9.851,19.175-11.215Zm-19.451,11.367-19.2,11.221,16.765,9.856L440.236,165.3Zm-19.472,11.378-19.219,11.232,16.774,9.861,19.211-11.237Zm-19.489,11.389-19.236,11.242,16.781,9.866,19.229-11.247Zm-19.506,11.4-19.257,11.253,16.79,9.87,19.248-11.258Zm-19.527,11.41L326.21,212.291l16.8,9.875L362.274,210.9Zm-19.546,11.423-19.292,11.274,16.806,9.881,19.285-11.28Zm-19.564,11.432-19.31,11.285,16.813,9.885,19.3-11.289Zm-19.581,11.444-19.331,11.3,16.822,9.888,19.322-11.3Zm-19.6,11.456-19.348,11.307,16.829,9.893,19.342-11.311Zm-19.62,11.466L228.2,269.565l16.838,9.9L264.4,268.141Zm-19.639,11.477-19.385,11.328,16.847,9.9,19.377-11.333Zm-.236-.139-16.838-9.9L191.465,271.01l16.847,9.9Zm-17.074-10.037-16.839-9.9-19.4,11.318,16.847,9.9ZM193.547,249.51l-16.838-9.9L157.3,250.925l16.847,9.9Zm-17.074-10.038-16.838-9.9-19.418,11.31,16.847,9.9ZM159.4,229.434l-16.838-9.9-19.425,11.3,16.847,9.9ZM142.324,219.4l-16.839-9.9-19.433,11.3,16.847,9.9Zm-17.075-10.037-16.838-9.9L88.97,210.755l16.847,9.9Zm-17.074-10.038-16.838-9.9-19.45,11.29,16.847,9.9ZM91.1,189.284l-16.838-9.9L54.806,190.67l16.847,9.9ZM74.027,179.246l-16.838-9.9L37.723,180.628l16.845,9.9Zm.273-.158,19.44-11.275L76.91,157.918,57.462,169.19Zm19.713-11.434,19.421-11.264L96.612,146.5l-19.429,11.26Zm19.694-11.423,19.4-11.253-16.813-9.885-19.41,11.249Zm19.675-11.412,19.383-11.242-16.806-9.88-19.391,11.237Zm19.655-11.4L172.4,122.188l-16.8-9.875-19.372,11.227Zm19.638-11.391,19.347-11.221-16.789-9.87-19.355,11.216Zm19.618-11.378,19.328-11.21-16.781-9.866L175.5,100.782Zm19.6-11.367,19.31-11.2-16.774-9.86L195.11,89.418Zm19.58-11.358,19.292-11.188L234,66.882,214.7,78.066Zm19.563-11.345L270.307,65.4,253.55,55.55,234.268,66.725Zm19.543-11.335,19.256-11.168-16.749-9.846L253.82,55.394ZM290.1,53.921l19.235-11.157L292.6,32.923,273.353,44.075Zm19.505-11.313,19.218-11.147-16.734-9.837L292.867,32.765Zm.235.138,16.742,9.843,19.21-11.152L329.06,31.6Zm16.977,9.98,16.742,9.842,19.2-11.156-16.733-9.837Zm16.977,9.98,16.742,9.842,19.193-11.161L363,51.55Zm16.977,9.979,16.742,9.843L396.7,71.362l-16.735-9.838Zm16.976,9.98,16.743,9.843L413.67,81.338,396.935,71.5Zm16.978,9.98,16.741,9.842,19.17-11.174L413.9,81.477Zm16.976,9.98,16.742,9.842,19.162-11.179-16.735-9.838Zm16.977,9.979,16.742,9.843,19.155-11.184-16.735-9.838Zm16.977,9.98,16.742,9.843,19.146-11.189L464.809,111.4Zm16.977,9.98,16.742,9.843,19.138-11.194-16.735-9.838Zm33.449,19.979L479.339,142.7l-19.156,11.2,16.749,9.846Zm-19.417,11.366-16.749-9.846L440.74,165.281l16.758,9.85Zm-19.436,11.377-16.757-9.851-19.193,11.225,16.765,9.856Zm-19.455,11.388-16.765-9.856L401.8,188.057l16.774,9.861Zm-19.473,11.4-16.773-9.86L382.3,199.461l16.781,9.866Zm-19.49,11.409-16.781-9.865L362.78,210.878l16.789,9.87ZM379.3,220.906l-16.789-9.87L343.243,222.3l16.8,9.875ZM359.77,232.337l-16.8-9.875-19.285,11.279,16.8,9.88ZM340.222,243.78l-16.806-9.88-19.3,11.29,16.813,9.885Zm-19.565,11.453-16.815-9.885-19.322,11.3,16.822,9.889ZM301.071,266.7l-16.822-9.889-19.34,11.312,16.831,9.894Zm-19.6,11.475-16.831-9.893L245.278,279.6l16.838,9.9ZM261.845,289.66l-16.838-9.9-19.377,11.333,16.847,9.9Zm-39.03,22.847L242.2,301.157l-16.845-9.9-19.4,11.345Zm-17.09-10.047,19.4-11.345-16.847-9.9-19.4,11.339Zm-17.091-10.048,19.4-11.339-16.845-9.9L171.78,282.5Zm-17.09-10.047,19.412-11.334-16.847-9.9-19.42,11.331Zm-17.091-10.047,19.42-11.331-16.847-9.9L137.6,262.409ZM137.362,262.27l19.429-11.326-16.847-9.9-19.436,11.321Zm-17.09-10.047L139.709,240.9,122.862,231l-19.445,11.317Zm-17.091-10.047,19.445-11.317-16.847-9.9L86.327,232.267ZM86.091,232.129l19.452-11.311-16.845-9.9L69.237,222.221ZM69,222.082l19.462-11.307-16.848-9.9-19.468,11.3ZM51.909,212.034l19.469-11.3-16.847-9.9-19.477,11.3ZM54.3,190.69l-16.847-9.9L17.964,192.079l16.855,9.908ZM.874,182.031l16.854,9.909,19.485-11.292-16.847-9.9Zm19.767-11.446,16.847,9.9,19.466-11.281-16.839-9.9Zm19.747-11.434,16.838,9.9,19.448-11.272-16.831-9.893Zm19.729-11.424,16.831,9.894,19.429-11.26-16.822-9.889Zm19.71-11.413L96.648,146.2l19.41-11.249L99.244,125.07Zm19.691-11.4,16.815,9.885,19.391-11.238-16.806-9.88Zm19.672-11.391L136,123.4l19.374-11.227-16.8-9.875Zm19.654-11.381,16.8,9.876L175,100.8l-16.79-9.87Zm19.634-11.369,16.79,9.87L194.6,89.438l-16.783-9.866Zm19.616-11.359,16.783,9.866,19.317-11.2-16.774-9.861Zm19.6-11.346,16.774,9.86,19.3-11.184L217,56.887ZM217.267,56.73l16.767,9.858,19.281-11.174-16.759-9.851ZM236.827,45.4l16.758,9.851,19.262-11.162L256.1,34.246ZM256.368,34.09l16.751,9.846,19.243-11.152L275.62,22.942Zm19.522-11.3,16.742,9.843,19.225-11.141-16.734-9.838ZM314.609.366,295.394,11.492l16.733,9.837L331.335,10.2Zm16.961,9.971L312.362,21.468,329.1,31.3l19.2-11.136Zm16.96,9.971-19.2,11.135,16.733,9.838,19.192-11.14Zm16.961,9.971L346.3,41.418l16.735,9.838L382.216,40.11Zm16.961,9.971L363.268,51.393,380,61.231l19.176-11.15Zm16.96,9.971-19.175,11.15,16.733,9.838,19.168-11.155Zm16.961,9.971L397.2,71.344l16.733,9.838L433.1,70.022Zm16.961,9.971-19.16,11.16,16.734,9.838,19.152-11.165Zm16.961,9.971L431.14,91.3l16.735,9.838,19.144-11.17ZM467.253,90.1,448.11,101.27l16.733,9.838,19.136-11.174Zm16.961,9.972-19.136,11.173,16.733,9.837L500.939,109.9Zm16.96,9.969L482.046,121.22l16.733,9.838,19.12-11.183Zm-2.16,21.154,16.733,9.838,19.112-11.188-16.725-9.832Z" transform="translate(711.637 3065.084)" fill="#4c4c4c" fill-rule="evenodd"/>
      <path id="Path_256174" data-name="Path 256174" d="M934.388,3380.642l316.331-185.307-221.086-132.891L704.357,3250.054Z" fill="url(#radial-gradient)"/>
    </g>
    <path id="Path_256175" data-name="Path 256175" d="M687.9,3247.421l19.736-11.578,16.857,10.119L704.843,3257.5Z" transform="translate(-40 50)" fill="#73bfa6" opacity="0.6"/>
    <path id="Path_256176" data-name="Path 256176" d="M688.63,3246.959l19.531-11.458,17.007,10.021-19.544,11.449Z" transform="translate(-38 29)" fill="#fad57b" opacity="0.2"/>
    <path id="Path_256177" data-name="Path 256177" d="M688.432,3246.62,708,3235.176l16.966,10.063-19.608,11.446Z" transform="translate(-30 -35)" fill="#f48a3f" opacity="0.1"/>
    <path id="Path_256178" data-name="Path 256178" d="M688.489,3246.681l19.536-11.377,17.049,9.967-19.53,11.485Z" transform="translate(72 25)" fill="#72bfa8" opacity="0.2"/>
    <g id="Group_87459" data-name="Group 87459" transform="translate(330 50)">
      <g id="Group_87457-2" data-name="Group 87457" transform="translate(-203 -35.642)">
        <path id="Path_256173-2" data-name="Path 256173" d="M222.779,312.8.363,182.051,314.645.071,535.363,129.827Zm292.7-171.614-16.733-9.838-19.138,11.194,16.741,9.842ZM257.841,172.1l19.307-11.246-16.791-9.87-19.315,11.24Zm-17.07-9.717-19.333,11.251,16.806,9.88,19.326-11.256Zm36.648-1.686,19.289-11.235-16.783-9.866-19.3,11.23ZM296.977,149.3l19.269-11.224-16.774-9.861-19.278,11.219Zm.235.138,16.781,9.866,19.262-11.227-16.774-9.861Zm-.27.158-19.288,11.233,16.789,9.871,19.28-11.24Zm-19.559,11.392-19.306,11.245,16.8,9.875,19.3-11.249Zm-19.577,11.4L238.48,183.65l16.806,9.88L274.6,182.27Zm-19.6,11.414-19.343,11.265,16.813,9.885,19.335-11.27Zm-.236-.139-16.806-9.88-19.35,11.26,16.813,9.886Zm-17.041-10.018-16.807-9.88-19.359,11.256,16.815,9.886Zm.271-.158,19.333-11.251-16.8-9.875L204.4,163.614Zm19.6-11.408,19.315-11.241-16.79-9.871-19.323,11.236Zm19.586-11.4,19.3-11.23-16.783-9.866-19.3,11.225ZM279.96,139.3l19.277-11.219-16.774-9.861-19.285,11.214Zm19.548-11.376,19.259-11.208L302,106.859l-19.267,11.2Zm.235.138,16.774,9.861,19.252-11.213L319,116.854Zm17.009,10,16.774,9.86L352.769,136.7,336,126.849Zm17.009,10,16.774,9.861L369.77,146.7,353,136.843Zm-.27.157-19.261,11.227,16.781,9.866,19.253-11.232ZM313.959,159.6l-19.28,11.238,16.79,9.871L330.74,169.47ZM294.407,171l-19.3,11.249,16.8,9.875L311.2,180.87Zm-19.569,11.408-19.317,11.26,16.806,9.88,19.308-11.265ZM255.25,193.826,235.914,205.1l16.815,9.885,19.327-11.275Zm-19.607,11.43-19.354,11.281,16.822,9.889,19.347-11.286Zm-.236-.139-16.813-9.885-19.362,11.278,16.822,9.889Zm-17.049-10.023-16.815-9.885-19.37,11.273L199,206.372Zm-17.049-10.023-16.815-9.885-19.378,11.268,16.822,9.889Zm-17.05-10.023-16.813-9.883-19.387,11.263,16.822,9.888Zm.272-.157,19.359-11.257-16.8-9.88-19.367,11.252Zm19.632-11.415,19.34-11.246-16.8-9.875L187.355,153.6Zm19.612-11.4L243.1,140.836l-16.79-9.871L206.976,142.2Zm19.595-11.393,19.3-11.224-16.781-9.866-19.312,11.22ZM262.943,129.3l19.285-11.213-16.774-9.861L246.161,119.43ZM282.5,117.924l19.268-11.2L285,96.865l-19.275,11.2Zm19.538-11.36,19.249-11.193L304.528,85.52,285.271,96.708Zm.235.138,16.767,9.858,19.241-11.2L321.521,95.51Zm17,10,16.767,9.856,19.232-11.2L338.513,105.5Zm17,10,16.765,9.855,19.225-11.206-16.758-9.851Zm17,9.994,16.767,9.856,19.216-11.211L372.5,125.478Zm17,9.994,16.765,9.856,19.21-11.216-16.759-9.851Zm-.27.157L350.77,158.059l16.774,9.861,19.227-11.226ZM350.5,158.218,331.247,169.45l16.783,9.866,19.245-11.237Zm-19.523,11.389L311.7,180.851l16.791,9.871,19.264-11.248Zm-19.543,11.4-19.29,11.254,16.8,9.876,19.283-11.259Zm-19.562,11.413-19.308,11.265,16.806,9.88,19.3-11.27Zm-19.58,11.424-19.327,11.275,16.815,9.885,19.318-11.28Zm-19.6,11.434-19.347,11.286,16.823,9.889,19.338-11.291Zm-19.618,11.445-19.365,11.3,16.831,9.894,19.356-11.3Zm-.236-.139L216.018,216.7,196.644,227.99l16.831,9.894Zm-17.058-10.028-16.822-9.888-19.381,11.288,16.829,9.894ZM198.724,206.53,181.9,196.641l-19.39,11.284,16.831,9.893ZM181.666,196.5l-16.823-9.889-19.4,11.279,16.831,9.894Zm-17.059-10.028-16.821-9.889-19.405,11.274,16.829,9.894ZM147.55,176.447l-16.823-9.889-19.413,11.269,16.831,9.894Zm.271-.158,19.387-11.263-16.815-9.885L131,166.4Zm19.659-11.421,19.367-11.252-16.806-9.88-19.375,11.247Zm19.639-11.409,19.349-11.242-16.8-9.875-19.358,11.236Zm19.62-11.4,19.332-11.231-16.79-9.871-19.339,11.226Zm19.6-11.388,19.312-11.22-16.783-9.866L209.553,120.8Zm19.582-11.378,19.294-11.209-16.774-9.861-19.3,11.205Zm19.564-11.366,19.275-11.2L268,86.871,248.715,98.064ZM285.036,96.57l19.257-11.188-16.758-9.851L268.27,86.714Zm19.527-11.345L323.8,74.048,307.051,64.2,287.805,75.374Zm.235.138,16.758,9.851,19.23-11.182-16.749-9.846Zm16.993,9.99,16.758,9.851,19.222-11.187-16.751-9.846Zm16.993,9.989,16.758,9.853L374.757,104l-16.751-9.848Zm16.993,9.99,16.758,9.851,19.206-11.2-16.749-9.846Zm16.993,9.989,16.758,9.853,19.2-11.2-16.749-9.846Zm16.993,9.99,16.758,9.851,19.191-11.205-16.751-9.846Zm16.993,9.99,16.758,9.851,19.182-11.21-16.749-9.848Zm-.269.157-19.209,11.216,16.765,9.856,19.2-11.221Zm-19.479,11.374L367.779,168.06l16.774,9.86,19.219-11.231Zm-19.5,11.385-19.245,11.237,16.781,9.866,19.237-11.242Zm-19.515,11.4-19.264,11.248,16.79,9.87,19.256-11.253Zm-19.534,11.405-19.283,11.259,16.8,9.875,19.274-11.263ZM308.9,202.436l-19.3,11.27,16.8,9.88L325.7,212.31Zm-19.571,11.429-19.319,11.28,16.815,9.883,19.311-11.284ZM269.744,225.3,250.4,236.594l16.822,9.889,19.331-11.3Zm-19.611,11.45-19.356,11.3,16.831,9.894,19.348-11.307Zm-19.628,11.461-19.375,11.313,16.837,9.9,19.367-11.318Zm-.236-.138-16.831-9.894L194.056,249.49l16.838,9.9ZM213.2,238.043l-16.831-9.894-19.392,11.3,16.839,9.9Zm-17.066-10.033-16.831-9.894-19.4,11.3,16.838,9.9ZM179.07,217.977l-16.831-9.894-19.407,11.294,16.838,9.9ZM162,207.944l-16.831-9.894-19.415,11.289,16.839,9.9Zm-17.066-10.033-16.829-9.894L108.684,199.3l16.838,9.9Zm-17.065-10.032-16.831-9.894L91.61,189.265l16.838,9.9Zm-17.066-10.033-16.831-9.894-19.44,11.275,16.839,9.9Zm.273-.158,19.413-11.269-16.822-9.889L94.248,167.793Zm19.686-11.428L150.159,155l-16.815-9.885-19.4,11.253Zm19.667-11.417L169.806,143.6,153,133.717l-19.383,11.242Zm19.646-11.4L189.435,132.2l-16.8-9.876-19.365,11.232Zm19.629-11.394,19.339-11.226-16.79-9.871-19.347,11.221Zm19.611-11.385,19.321-11.215-16.783-9.866L192.527,110.79Zm19.591-11.372,19.3-11.2-16.774-9.861-19.308,11.2Zm19.573-11.361,19.284-11.194L251,76.876,231.707,88.065Zm19.554-11.351L287.3,75.392l-16.759-9.851L251.268,76.719Zm19.536-11.34,19.246-11.172-16.749-9.846L270.813,65.383Zm19.516-11.329,19.227-11.161L309.572,42.9,290.337,54.059Zm.235.139,16.751,9.846,19.219-11.166-16.742-9.843Zm16.985,9.984,16.749,9.848,19.211-11.171-16.742-9.843Zm16.984,9.985,16.751,9.846,19.2-11.174L360.5,72.843ZM358.276,94l16.749,9.846,19.2-11.181-16.742-9.842Zm16.984,9.984,16.749,9.848L411.2,102.645,394.456,92.8Zm16.984,9.985L409,123.815l19.179-11.189-16.742-9.843Zm16.985,9.985,16.749,9.846,19.172-11.194-16.742-9.843Zm16.985,9.984,16.748,9.848,19.165-11.2-16.742-9.843Zm16.984,9.985,16.749,9.846,19.156-11.2-16.742-9.843Zm-.27.157-19.182,11.21,16.758,9.851,19.175-11.215Zm-19.451,11.367-19.2,11.221,16.765,9.856L440.236,165.3Zm-19.472,11.378-19.219,11.232,16.774,9.861,19.211-11.237Zm-19.489,11.389-19.236,11.242,16.781,9.866,19.229-11.247Zm-19.506,11.4-19.257,11.253,16.79,9.87,19.248-11.258Zm-19.527,11.41L326.21,212.291l16.8,9.875L362.274,210.9Zm-19.546,11.423-19.292,11.274,16.806,9.881,19.285-11.28Zm-19.564,11.432-19.31,11.285,16.813,9.885,19.3-11.289Zm-19.581,11.444-19.331,11.3,16.822,9.888,19.322-11.3Zm-19.6,11.456-19.348,11.307,16.829,9.893,19.342-11.311Zm-19.62,11.466L228.2,269.565l16.838,9.9L264.4,268.141Zm-19.639,11.477-19.385,11.328,16.847,9.9,19.377-11.333Zm-.236-.139-16.838-9.9L191.465,271.01l16.847,9.9Zm-17.074-10.037-16.839-9.9-19.4,11.318,16.847,9.9ZM193.547,249.51l-16.838-9.9L157.3,250.925l16.847,9.9Zm-17.074-10.038-16.838-9.9-19.418,11.31,16.847,9.9ZM159.4,229.434l-16.838-9.9-19.425,11.3,16.847,9.9ZM142.324,219.4l-16.839-9.9-19.433,11.3,16.847,9.9Zm-17.075-10.037-16.838-9.9L88.97,210.755l16.847,9.9Zm-17.074-10.038-16.838-9.9-19.45,11.29,16.847,9.9ZM91.1,189.284l-16.838-9.9L54.806,190.67l16.847,9.9ZM74.027,179.246l-16.838-9.9L37.723,180.628l16.845,9.9Zm.273-.158,19.44-11.275L76.91,157.918,57.462,169.19Zm19.713-11.434,19.421-11.264L96.612,146.5l-19.429,11.26Zm19.694-11.423,19.4-11.253-16.813-9.885-19.41,11.249Zm19.675-11.412,19.383-11.242-16.806-9.88-19.391,11.237Zm19.655-11.4L172.4,122.188l-16.8-9.875-19.372,11.227Zm19.638-11.391,19.347-11.221-16.789-9.87-19.355,11.216Zm19.618-11.378,19.328-11.21-16.781-9.866L175.5,100.782Zm19.6-11.367,19.31-11.2-16.774-9.86L195.11,89.418Zm19.58-11.358,19.292-11.188L234,66.882,214.7,78.066Zm19.563-11.345L270.307,65.4,253.55,55.55,234.268,66.725Zm19.543-11.335,19.256-11.168-16.749-9.846L253.82,55.394ZM290.1,53.921l19.235-11.157L292.6,32.923,273.353,44.075Zm19.505-11.313,19.218-11.147-16.734-9.837L292.867,32.765Zm.235.138,16.742,9.843,19.21-11.152L329.06,31.6Zm16.977,9.98,16.742,9.842,19.2-11.156-16.733-9.837Zm16.977,9.98,16.742,9.842,19.193-11.161L363,51.55Zm16.977,9.979,16.742,9.843L396.7,71.362l-16.735-9.838Zm16.976,9.98,16.743,9.843L413.67,81.338,396.935,71.5Zm16.978,9.98,16.741,9.842,19.17-11.174L413.9,81.477Zm16.976,9.98,16.742,9.842,19.162-11.179-16.735-9.838Zm16.977,9.979,16.742,9.843,19.155-11.184-16.735-9.838Zm16.977,9.98,16.742,9.843,19.146-11.189L464.809,111.4Zm16.977,9.98,16.742,9.843,19.138-11.194-16.735-9.838Zm33.449,19.979L479.339,142.7l-19.156,11.2,16.749,9.846Zm-19.417,11.366-16.749-9.846L440.74,165.281l16.758,9.85Zm-19.436,11.377-16.757-9.851-19.193,11.225,16.765,9.856Zm-19.455,11.388-16.765-9.856L401.8,188.057l16.774,9.861Zm-19.473,11.4-16.773-9.86L382.3,199.461l16.781,9.866Zm-19.49,11.409-16.781-9.865L362.78,210.878l16.789,9.87ZM379.3,220.906l-16.789-9.87L343.243,222.3l16.8,9.875ZM359.77,232.337l-16.8-9.875-19.285,11.279,16.8,9.88ZM340.222,243.78l-16.806-9.88-19.3,11.29,16.813,9.885Zm-19.565,11.453-16.815-9.885-19.322,11.3,16.822,9.889ZM301.071,266.7l-16.822-9.889-19.34,11.312,16.831,9.894Zm-19.6,11.475-16.831-9.893L245.278,279.6l16.838,9.9ZM261.845,289.66l-16.838-9.9-19.377,11.333,16.847,9.9Zm-39.03,22.847L242.2,301.157l-16.845-9.9-19.4,11.345Zm-17.09-10.047,19.4-11.345-16.847-9.9-19.4,11.339Zm-17.091-10.048,19.4-11.339-16.845-9.9L171.78,282.5Zm-17.09-10.047,19.412-11.334-16.847-9.9-19.42,11.331Zm-17.091-10.047,19.42-11.331-16.847-9.9L137.6,262.409ZM137.362,262.27l19.429-11.326-16.847-9.9-19.436,11.321Zm-17.09-10.047L139.709,240.9,122.862,231l-19.445,11.317Zm-17.091-10.047,19.445-11.317-16.847-9.9L86.327,232.267ZM86.091,232.129l19.452-11.311-16.845-9.9L69.237,222.221ZM69,222.082l19.462-11.307-16.848-9.9-19.468,11.3ZM51.909,212.034l19.469-11.3-16.847-9.9-19.477,11.3ZM54.3,190.69l-16.847-9.9L17.964,192.079l16.855,9.908ZM.874,182.031l16.854,9.909,19.485-11.292-16.847-9.9Zm19.767-11.446,16.847,9.9,19.466-11.281-16.839-9.9Zm19.747-11.434,16.838,9.9,19.448-11.272-16.831-9.893Zm19.729-11.424,16.831,9.894,19.429-11.26-16.822-9.889Zm19.71-11.413L96.648,146.2l19.41-11.249L99.244,125.07Zm19.691-11.4,16.815,9.885,19.391-11.238-16.806-9.88Zm19.672-11.391L136,123.4l19.374-11.227-16.8-9.875Zm19.654-11.381,16.8,9.876L175,100.8l-16.79-9.87Zm19.634-11.369,16.79,9.87L194.6,89.438l-16.783-9.866Zm19.616-11.359,16.783,9.866,19.317-11.2-16.774-9.861Zm19.6-11.346,16.774,9.86,19.3-11.184L217,56.887ZM217.267,56.73l16.767,9.858,19.281-11.174-16.759-9.851ZM236.827,45.4l16.758,9.851,19.262-11.162L256.1,34.246ZM256.368,34.09l16.751,9.846,19.243-11.152L275.62,22.942Zm19.522-11.3,16.742,9.843,19.225-11.141-16.734-9.838ZM314.609.366,295.394,11.492l16.733,9.837L331.335,10.2Zm16.961,9.971L312.362,21.468,329.1,31.3l19.2-11.136Zm16.96,9.971-19.2,11.135,16.733,9.838,19.192-11.14Zm16.961,9.971L346.3,41.418l16.735,9.838L382.216,40.11Zm16.961,9.971L363.268,51.393,380,61.231l19.176-11.15Zm16.96,9.971-19.175,11.15,16.733,9.838,19.168-11.155Zm16.961,9.971L397.2,71.344l16.733,9.838L433.1,70.022Zm16.961,9.971-19.16,11.16,16.734,9.838,19.152-11.165Zm16.961,9.971L431.14,91.3l16.735,9.838,19.144-11.17ZM467.253,90.1,448.11,101.27l16.733,9.838,19.136-11.174Zm16.961,9.972-19.136,11.173,16.733,9.837L500.939,109.9Zm16.96,9.969L482.046,121.22l16.733,9.838,19.12-11.183Zm-2.16,21.154,16.733,9.838,19.112-11.188-16.725-9.832Z" transform="translate(711.637 3065.084)" fill="#4c4c4c" fill-rule="evenodd"/>
        <path id="Path_256174-2" data-name="Path 256174" d="M934.388,3380.642l316.331-185.307-221.086-132.891L704.357,3250.054Z" fill="url(#radial-gradient)"/>
      </g>
      <path id="Path_256175-2" data-name="Path 256175" d="M687.9,3247.421l19.736-11.578,16.857,10.119L704.843,3257.5Z" fill="#73bfa6" opacity="0.6"/>
      <path id="Path_256176-2" data-name="Path 256176" d="M688.63,3246.959l19.531-11.458,17.007,10.021-19.544,11.449Z" transform="translate(2 -21)" fill="#fad57b" opacity="0.2"/>
      <path id="Path_256177-2" data-name="Path 256177" d="M688.432,3246.62,708,3235.176l16.966,10.063-19.608,11.446Z" transform="translate(10 -85)" fill="#f48a3f" opacity="0.1"/>
      <path id="Path_256178-2" data-name="Path 256178" d="M688.489,3246.681l19.536-11.377,17.049,9.967-19.53,11.485Z" transform="translate(112 -25)" fill="#72bfa8" opacity="0.2"/>
    </g>
  </g>
</svg>
